<svg width="16.000000" height="16.000000" viewBox="0 0 16 16" fill="none" xmlns="http://www.w3.org/2000/svg" xmlns:xlink="http://www.w3.org/1999/xlink">
	<desc>
			Created with Pixso.
	</desc>
	<defs/>
	<rect id="mail" width="16.000000" height="16.000000" fill="#FFFFFF" fill-opacity="0"/>
	<circle id="Ellipse 34" cx="8.000000" cy="8.000000" r="7.500000" stroke="#9873FF" stroke-opacity="1.000000" stroke-width="1.000000"/>
	<path id="Body 12" d="M8.01 7.57Q7.94 8.06 7.94 8.56Q7.94 9.19 8.09 9.66Q8.24 10.14 8.51 10.45Q8.71 10.67 8.96 10.82Q9.05 10.87 9.15 10.92Q9.18 10.93 9.21 10.94Q9.55 11.07 9.94 11.07Q10.52 11.07 10.94 10.84Q11.12 10.74 11.26 10.61Q11.46 10.42 11.59 10.17Q11.82 9.73 11.82 9.12Q11.82 8.56 11.62 8.17Q11.49 7.92 11.31 7.75Q11.19 7.64 11.05 7.56Q10.67 7.35 10.17 7.35Q9.84 7.35 9.58 7.45Q9.33 7.54 9.16 7.69Q9.03 7.8 8.93 7.93Q8.9 7.98 8.86 8.04L8.82 8.04Q8.84 7.43 9.01 6.96Q9.11 6.69 9.29 6.48Q9.42 6.33 9.59 6.22Q9.99 5.95 10.71 5.95Q10.89 5.95 11.07 5.97Q11.25 6 11.41 6.04L11.41 5.28Q11.26 5.24 11.05 5.23Q10.83 5.21 10.66 5.21Q10 5.21 9.53 5.4Q9.05 5.58 8.74 5.91Q8.65 6.01 8.56 6.12Q8.38 6.36 8.26 6.66Q8.08 7.08 8.01 7.57ZM7.19 7.83L5.62 7.83L5.62 6.23L4.93 6.23L4.93 7.83L3.37 7.83L3.37 8.52L4.93 8.52L4.93 10.1L5.62 10.1L5.62 8.52L7.19 8.52L7.19 7.83ZM10.45 10.18Q10.23 10.32 9.93 10.32Q9.67 10.32 9.47 10.2Q9.47 10.2 9.46 10.2Q9.38 10.15 9.31 10.09Q9.21 10 9.13 9.89Q9.09 9.83 9.06 9.77Q8.98 9.63 8.93 9.46Q8.87 9.23 8.87 9.01Q8.87 8.99 8.87 8.96Q8.88 8.76 9 8.57Q9.01 8.56 9.02 8.55Q9.15 8.35 9.38 8.21Q9.63 8.07 9.96 8.07Q10.35 8.07 10.59 8.27Q10.64 8.31 10.68 8.36Q10.92 8.64 10.92 9.13Q10.92 9.73 10.65 10.02Q10.56 10.12 10.45 10.18Z" fill="#333333" fill-opacity="1.000000" fill-rule="evenodd"/>
</svg>
