<svg width="16.000000" height="16.000000" viewBox="0 0 16 16" fill="none" xmlns="http://www.w3.org/2000/svg" xmlns:xlink="http://www.w3.org/1999/xlink">
	<defs>
		<clipPath id="clip224_7997">
			<rect id="add_circle_outline" width="16.000000" height="16.000000" fill="white" fill-opacity="0"/>
		</clipPath>
	</defs>
	<g clip-path="url(#clip224_7997)">
		<path id="Vector" d="M8 4.66C7.63 4.66 7.33 4.96 7.33 5.33L7.33 7.33L5.33 7.33C4.96 7.33 4.66 7.63 4.66 7.99C4.66 8.36 4.96 8.66 5.33 8.66L7.33 8.66L7.33 10.66C7.33 11.03 7.63 11.33 8 11.33C8.36 11.33 8.66 11.03 8.66 10.66L8.66 8.66L10.66 8.66C11.03 8.66 11.33 8.36 11.33 7.99C11.33 7.63 11.03 7.33 10.66 7.33L8.66 7.33L8.66 5.33C8.66 4.96 8.36 4.66 8 4.66ZM8 1.33C4.32 1.33 1.33 4.31 1.33 7.99C1.33 11.67 4.32 14.66 8 14.66C11.68 14.66 14.66 11.67 14.66 7.99C14.66 4.31 11.68 1.33 8 1.33ZM8 13.33C5.06 13.33 2.66 10.93 2.66 7.99C2.66 5.05 5.06 2.66 8 2.66C10.94 2.66 13.33 5.05 13.33 7.99C13.33 10.93 10.94 13.33 8 13.33Z" fill="#9873FF" fill-opacity="1.000000" fill-rule="nonzero"/>
	</g>
</svg>
