<svg width="22.000000" height="16.000000" viewBox="0 0 22 16" fill="none" xmlns="http://www.w3.org/2000/svg" xmlns:xlink="http://www.w3.org/1999/xlink">
	<desc>
			Created with Pixso.
	</desc>
	<defs/>
	<path id="Vector" d="M13.5 8C15.71 8 17.5 6.2 17.5 4C17.5 1.79 15.71 0 13.5 0C11.29 0 9.5 1.79 9.5 4C9.5 6.2 11.29 8 13.5 8ZM4.5 6L4.5 3L2.5 3L2.5 6L-0.5 6L-0.5 8L2.5 8L2.5 11L4.5 11L4.5 8L7.5 8L7.5 6L4.5 6ZM13.5 10C10.83 10 5.5 11.33 5.5 14L5.5 16L21.5 16L21.5 14C21.5 11.33 16.17 10 13.5 10Z" fill="#9873FF" fill-opacity="1.000000" fill-rule="nonzero"/>
</svg>
